HIERARCHY
ROOT Hips
{
	OFFSET 0.000000 0.000000 0.000000
	CHANNELS 6 Xposition Yposition Zposition Zrotation Yrotation Xrotation 
	JOINT LHipJoint
	{
		OFFSET 0.000000 0.000000 0.000000
		CHANNELS 3 Zrotation Yrotation Xrotation
		JOINT LeftUpLeg
		{
			OFFSET 1.363060 -1.794630 0.839290
			CHANNELS 3 Zrotation Yrotation Xrotation
			JOINT LeftLeg
			{
				OFFSET 2.448110 -6.726130 0.000000
				CHANNELS 3 Zrotation Yrotation Xrotation
				JOINT LeftFoot
				{
					OFFSET 2.562200 -7.039590 0.000000
					CHANNELS 3 Zrotation Yrotation Xrotation
					JOINT LeftToeBase
					{
						OFFSET 0.157640 -0.433110 2.322550
						CHANNELS 3 Zrotation Yrotation Xrotation
						End Site
						{
							OFFSET 0.000000 0.000000 0.000000
						}
					}
				}
			}
		}
	}
	JOINT RHipJoint
	{
		OFFSET 0.000000 0.000000 0.000000
		CHANNELS 3 Zrotation Yrotation Xrotation
		JOINT RightUpLeg
		{
			OFFSET -1.305520 -1.794630 0.839290
			CHANNELS 3 Zrotation Yrotation Xrotation
			JOINT RightLeg
			{
				OFFSET -2.542530 -6.985550 0.000000
				CHANNELS 3 Zrotation Yrotation Xrotation
				JOINT RightFoot
				{
					OFFSET -2.568260 -7.056230 0.000000
					CHANNELS 3 Zrotation Yrotation Xrotation
					JOINT RightToeBase
					{
						OFFSET -0.164730 -0.452590 2.363150
						CHANNELS 3 Zrotation Yrotation Xrotation
						End Site
						{
							OFFSET 0.000000 0.000000 0.000000
						}
					}
				}
			}
		}
	}
}
MOTION
Frames: 19
Frame Time: 0.008333
25.888980 17.001894 2.771709 68.390315 -88.559332 -45.709215 -7.937671 2.011390 5.502167 -10.354915 -7.690364 -43.017030 -2.360323 0.202623 24.375738 1.382158 5.549714 -7.492706 0.302200 -0.000000 -30.180400 12.224099 -3.751627 0.912044 3.455678 -8.134072 -7.518915 0.159847 -1.464869 24.564841 -0.186289 5.130497 23.577107 2.659900 -0.000000 -94.095300
25.723265 17.001051 2.776894 69.791652 -88.466162 -47.345873 -7.920112 2.079307 5.429449 -10.630385 -7.482662 -42.289964 -2.358814 0.228111 24.842188 1.410811 5.651925 -7.888118 0.239500 0.000000 -29.450400 12.352366 -3.737935 0.879429 3.134697 -8.602706 -7.797854 0.007277 -1.526210 25.896470 -0.318778 5.266975 25.349809 2.943600 -0.000000 -93.400601
25.558572 17.003975 2.782283 71.608890 -88.370568 -49.399153 -7.898483 2.137252 5.359122 -10.898130 -7.289182 -41.422389 -2.372710 0.222349 25.074052 1.441160 5.737021 -8.388319 0.159500 0.000000 -28.957901 12.476320 -3.711877 0.845764 2.809338 -9.048297 -8.125926 -0.134727 -1.580253 27.287549 -0.464523 5.362585 27.138145 3.213900 0.000000 -92.004500
25.394556 17.010137 2.788898 73.637401 -88.299552 -51.659417 -7.882753 2.183447 5.293889 -11.123491 -7.098351 -40.451864 -2.395126 0.191130 25.108727 1.471234 5.798984 -8.962223 0.066099 0.000000 -28.691600 12.583386 -3.678677 0.817294 2.521501 -9.438035 -8.495995 -0.260011 -1.626614 28.717057 -0.618265 5.360614 28.853143 3.422900 -0.000000 -89.913900
25.231280 17.019056 2.796395 76.068212 -88.239039 -54.326838 -7.867894 2.219382 5.232688 -11.321049 -6.929061 -39.365712 -2.422282 0.136677 24.955638 1.503668 5.866299 -9.564223 -0.033700 0.000000 -28.610800 12.679506 -3.638693 0.786889 2.245635 -9.793225 -8.889536 -0.365425 -1.668857 30.173304 -0.773642 5.237516 30.392002 3.539299 0.000000 -87.255300
25.068278 17.030212 2.805543 78.723045 -88.209633 -57.217689 -7.863319 2.244271 5.177162 -11.464790 -6.765769 -38.206063 -2.447345 0.065678 24.661386 1.537079 5.939416 -10.161515 -0.135700 -0.000000 -28.675400 12.754770 -3.599372 0.758708 2.018752 -10.094768 -9.304097 -0.449973 -1.710052 31.638254 -0.925108 4.923616 31.657415 3.504600 -0.000001 -84.172700
24.905929 17.043270 2.816013 81.690755 -88.198912 -60.430830 -7.866423 2.260011 5.124456 -11.569210 -6.613717 -36.970457 -2.467181 -0.018035 24.244783 1.573033 6.041174 -10.716134 -0.234600 -0.000001 -28.832300 12.813369 -3.562229 0.726257 1.823841 -10.361906 -9.724814 -0.515948 -1.755085 33.097500 -1.068880 4.384186 32.568790 3.286200 -0.000000 -80.955100
24.743731 17.057838 2.828329 84.830251 -88.220548 -63.817470 -7.885694 2.266845 5.075148 -11.618268 -6.452691 -35.701026 -2.477514 -0.108198 23.750385 1.609471 6.167714 -11.206207 -0.327201 -0.000000 -29.043200 12.848006 -3.533912 0.693218 1.690947 -10.585124 -10.157213 -0.566698 -1.807048 34.539561 -1.202836 3.572325 33.061266 2.850801 0.000000 -77.737700
24.581597 17.073666 2.842073 88.181844 -88.262459 -67.423766 -7.919806 2.267220 5.025151 -11.627921 -6.276799 -34.398996 -2.477994 -0.201249 23.194601 1.645876 6.326490 -11.609925 -0.410400 0.000000 -29.272300 12.861912 -3.514496 0.655126 1.606583 -10.780156 -10.590627 -0.606478 -1.868384 35.948113 -1.327578 2.483219 33.106663 2.203100 0.000000 -74.838100
24.419720 17.090443 2.857519 91.658579 -88.331587 -71.155388 -7.974804 2.262190 4.974521 -11.591712 -6.065254 -33.099529 -2.468022 -0.292867 22.609007 1.679075 6.502699 -11.920859 -0.482100 0.000000 -29.504901 12.850401 -3.507312 0.615227 1.589915 -10.945440 -11.036922 -0.638050 -1.939866 37.318296 -1.443483 1.128690 32.680958 1.366900 0.000000 -72.197800
24.258202 17.107962 2.874269 95.274344 -88.418316 -75.030318 -8.049877 2.253968 4.919471 -11.523221 -5.806903 -31.806115 -2.449826 -0.380844 22.003010 1.706738 6.686339 -12.135020 -0.540700 0.000000 -29.736099 12.815392 -3.510378 0.571355 1.630644 -11.092385 -11.490781 -0.663338 -2.020663 38.633089 -1.553244 -0.446630 31.804985 0.396900 -0.000000 -70.004800
24.096877 17.125946 2.892116 99.016164 -88.518972 -79.031920 -8.146046 2.244392 4.858469 -11.427983 -5.488737 -30.531256 -2.425974 -0.463602 21.386884 1.725682 6.857592 -12.257771 -0.585000 -0.000000 -29.972800 12.756674 -3.522677 0.523996 1.727131 -11.228072 -11.955834 -0.682323 -2.108988 39.882435 -1.658589 -2.176067 30.506158 -0.635300 0.000000 -68.167800
23.936044 17.144092 2.910863 102.893861 -88.629849 -83.163819 -8.263548 2.234946 4.792427 -11.310409 -5.104643 -29.291541 -2.399191 -0.540505 20.767866 1.733323 6.996577 -12.299020 -0.615000 0.000000 -30.229100 12.674208 -3.542372 0.476059 1.877023 -11.354860 -12.442061 -0.693944 -2.201634 41.053978 -1.761733 -3.982665 28.841655 -1.652900 -0.000000 -66.644600
23.779527 17.163875 2.921453 122.686378 -88.146381 -103.340223 -8.499559 2.070425 4.457492 -11.726765 -3.818199 -27.627049 -2.421131 -0.688241 19.798973 1.709476 7.078516 -12.197690 -0.633899 0.000000 -30.449500 12.501519 -3.686770 0.566125 1.535369 -10.713839 -12.942948 -0.667253 -2.389588 42.343805 -1.880961 -5.704971 26.808923 -2.518200 0.000000 -65.314600
23.620130 17.181356 2.940953 126.907490 -88.177097 -107.803258 -8.676503 2.074213 4.384663 -11.593293 -3.301245 -26.452939 -2.396063 -0.749150 19.149972 1.690667 7.117530 -12.102470 -0.635500 -0.000001 -30.795400 12.354018 -3.701615 0.510561 1.734578 -10.839588 -13.465847 -0.666490 -2.478076 43.332713 -1.979655 -7.408858 24.645092 -3.297200 -0.000000 -64.001900
23.461398 17.198123 2.960393 131.217071 -88.197097 -112.335162 -8.867736 2.086098 4.310993 -11.451484 -2.730982 -25.331502 -2.375676 -0.803546 18.499568 1.657720 7.085221 -11.964778 -0.625900 0.000000 -31.209700 12.190418 -3.710144 0.459657 1.958212 -10.960252 -14.024660 -0.657165 -2.557464 44.212883 -2.077489 -8.967541 22.391685 -3.901400 -0.000000 -62.846800
23.303733 17.214026 2.979374 135.551631 -88.199721 -116.875032 -9.066859 2.108093 4.236197 -11.307197 -2.120517 -24.253472 -2.361343 -0.851601 17.844545 1.611618 6.981086 -11.793631 -0.607000 0.000000 -31.703000 12.017745 -3.708092 0.411357 2.189302 -11.082698 -14.617820 -0.639492 -2.626279 44.987541 -2.170022 -10.320453 20.129241 -4.313600 -0.000000 -61.587500
23.147335 17.228922 2.997565 139.854123 -88.183121 -121.362396 -9.268337 2.141344 4.162739 -11.161447 -1.487326 -23.222240 -2.353094 -0.893313 17.189633 1.554292 6.810137 -11.596102 -0.580400 0.000000 -32.283500 11.841958 -3.692520 0.367353 2.420822 -11.204547 -15.252793 -0.614750 -2.682923 45.658916 -2.253366 -11.437577 17.945948 -4.546000 0.000000 -60.218200
22.991718 17.242696 3.014617 144.033432 -88.147172 -125.697865 -9.464831 2.186959 4.094508 -11.016029 -0.854500 -22.243405 -2.350197 -0.929072 16.540291 1.488879 6.586341 -11.374977 -0.547500 0.000000 -32.952700 11.670800 -3.661197 0.330811 2.647229 -11.320396 -15.940100 -0.584999 -2.726467 46.230695 -2.324101 -12.311114 15.921763 -4.629300 -0.000000 -58.887900
